<svg width="103" height="98" viewBox="0 0 103 98" fill="none" xmlns="http://www.w3.org/2000/svg">
<path d="M5 64.4259C5.56546 63.0937 6.10934 61.4093 6.46155 59.9943C6.71823 58.963 7.03556 57.9079 7.24058 56.8783C7.56816 55.2332 8.32029 53.6127 8.75039 51.9927C9.36185 49.6897 9.9272 47.3006 10.6394 45.0298C11.0717 43.6513 11.1304 42.2046 11.3012 40.7752C11.4174 39.8025 11.6121 38.4742 12.0733 37.6284C13.0324 35.87 13.909 34.0603 14.5276 32.1273C15.2737 29.7962 16.7241 27.6604 18.2849 25.9185C19.6621 24.3815 20.7359 22.3935 22.4972 21.356C23.7511 20.6175 25.0367 19.9142 26.2752 19.1402C27.369 18.4566 28.3473 17.5541 29.4465 16.8936C30.7431 16.1144 31.9601 15.2729 33.321 14.6317C34.7581 13.9545 36.2288 13.4155 37.7539 12.9698C39.4667 12.4692 41.0318 11.5634 42.7245 11.0387C44.3392 10.5381 46.1426 10.3115 47.8124 10.277C51.4082 10.2027 55.0056 10 58.6154 10C60.5232 10 62.3894 10.2508 64.2893 10.277C65.8806 10.2989 67.5462 10.3521 69.0876 10.7617C70.4852 11.133 72.0322 11.5395 73.3619 12.1466C73.9431 12.4119 74.4409 12.8925 75.0165 13.1852C75.6188 13.4915 76.4753 13.7918 76.9744 14.2931C77.5699 14.8913 78.4744 15.1903 79.2012 15.5318C79.9485 15.883 80.5893 16.4075 81.3246 16.7936C82.2058 17.2564 83.0684 17.944 83.9926 18.2785C84.3701 18.4152 84.751 19.0941 85.0405 19.4172C86.9505 21.5487 88.6251 24.0296 90.9349 25.7107C92.3711 26.756 93.7226 28.2928 94.8163 29.7423C95.4977 30.6452 96.0726 31.6729 96.6984 32.6274C97.0898 33.2243 97.8586 34.1408 98.0566 34.8586C98.2268 35.4762 98.4127 36.0949 98.5667 36.7282C98.7773 37.5942 99.2414 38.3101 99.4905 39.1441C99.6962 39.8326 99.7697 40.4931 100.056 41.1599C100.411 41.987 100.765 43.0346 100.8 43.9604C100.905 46.7055 101.279 49.8597 100.614 52.5313C99.8436 55.6276 98.5692 58.8419 96.857 61.4407C96.4825 62.0091 96.1516 62.6425 95.8298 63.2487C95.3124 64.223 94.5399 65.0537 93.9821 66.0185C93.4689 66.9064 93.022 67.8955 92.7067 68.8883C92.4176 69.7986 91.7703 70.578 91.5209 71.4888C91.2742 72.39 90.5486 73.3016 90.0318 74.0431C89.0236 75.4898 87.749 76.6369 86.5917 77.9285C84.5596 80.1963 82.3329 82.0226 79.8561 83.645C77.4981 85.1896 74.9787 86.1662 72.3278 86.9918C70.5807 87.5359 68.7245 87.9623 67.0193 88.6613C65.3972 89.3263 63.7509 90.213 62.028 90.4694C61.0551 90.6141 60.1416 91.0185 59.1669 91.1464C57.8392 91.3207 56.554 91.6221 55.2304 91.8158C52.1605 92.2651 49.0125 91.8236 45.9785 91.2311C45.4269 91.1233 44.7829 91.2856 44.2688 91.0156C43.6638 90.6979 42.9263 90.5639 42.2764 90.3924C40.5143 89.9276 38.8762 89.4398 37.0714 89.1845C35.6282 88.9804 34.2131 88.425 32.7901 88.1074C31.3388 87.7834 29.9123 87.2069 28.4537 86.861C27.6816 86.6779 26.8502 86.6922 26.0959 86.4455C25.7223 86.3233 25.3633 86.1417 24.9791 86.0608C24.4705 85.9537 24.1326 85.7515 23.6623 85.5377C22.4623 84.992 21.2366 84.4463 20.0705 83.8142C19.6869 83.6063 19.2189 83.4331 18.9537 83.0526C18.4592 82.343 17.7077 82.1604 17.1129 81.6138C16.1859 80.7618 15.3203 79.9239 14.4587 78.9979C13.725 78.2094 12.6835 77.3464 11.7631 76.8898C11.5447 76.7815 11.1878 76.2555 11.0117 76.0589C10.49 75.4767 10.0981 74.8103 9.53632 74.2586C8.23397 72.9795 7.24273 71.2815 6.48913 69.5499C5.8558 68.0948 5.37228 66.3298 5.37228 64.7029" stroke="#020617" stroke-width="3" stroke-linecap="round"/>
<path d="M33.5724 32.5397C33.5724 33.4717 32.8911 33.7374 32.5509 34.4376C32.1339 35.2959 31.862 36.4092 31.862 37.44C31.862 38.6013 32.1708 39.5508 33.1864 38.63C33.9375 37.949 33.7862 36.1543 33.7862 35.1454C33.7862 34.7373 33.8084 34.316 33.7862 33.9087C33.7477 33.2032 33.16 32.8034 32.8241 32.3375C32.0388 31.2484 31.6175 33.0754 31.3275 33.862C30.8604 35.1292 30.8311 36.7093 31.6482 37.72C32.2016 38.4046 33.2524 39.0917 34 38.7" stroke="#020617" stroke-width="3" stroke-linecap="round"/>
<path d="M67.6286 24.5696C66.8033 24.5696 66.0143 24.6767 65.202 24.7101C64.7561 24.7285 65.1722 25.6921 65.2778 25.8652C65.8822 26.8559 66.9012 27.8106 67.932 28.3002C68.2037 28.4293 69.414 29.2981 69.6762 28.8934C70.7431 27.2463 68.9542 24.95 67.4921 24.4292C66.9131 24.2229 66.1858 24.067 65.5811 24.0077C64.8027 23.9314 65.0351 24.4292 65.0351 25.1316" stroke="#020617" stroke-width="3" stroke-linecap="round"/>
<path d="M71 10.7151C71 9.80291 71.7738 8.93083 72.115 8.14384C72.4039 7.47764 72.9346 6.42548 72.9823 5.68372C73.0124 5.21574 73.3752 4.57761 73.5742 4.14417C74.4264 2.28835 76.4517 1.97496 78.0619 2.00149C81.5599 2.0591 82.5736 7.23998 83.6647 10.1754C84.7789 13.173 85 16.7574 85 20" stroke="#020617" stroke-width="3" stroke-linecap="round"/>
<path d="M9.91331 43C9.91331 42.0827 8.88754 41.4622 8.3491 40.8566C7.46073 39.8575 6.57294 38.8321 5.8819 37.6494C5.69424 37.3283 5.40429 37.0124 5.17089 36.7342C4.84405 36.3446 4.78323 35.91 4.53809 35.4669C3.93837 34.383 3.26413 33.3729 2.64681 32.2988C2.0463 31.254 1.88317 30.2348 2.078 29.029C2.30857 27.6022 3.08501 26.3366 4.43144 25.8922C6.62872 25.167 8.83888 24.8661 11.122 25.0552C12.6008 25.1777 14.1857 25.1612 15.644 25.4698C16.7644 25.7068 17.8622 25.9782 19 26.1034" stroke="#020617" stroke-width="3" stroke-linecap="round"/>
<path d="M33.5061 74.5419C33.5061 73.3529 33.6448 72.2538 33.7521 71.0762C33.8185 70.3468 33.8268 69.5552 33.984 68.8455C34.128 68.1954 34.4233 67.61 34.5885 66.9621C34.9217 65.6551 35.1215 64.0872 35.7833 62.9329C36.207 62.1939 36.3539 61.4998 36.6267 60.7099C36.9573 59.7528 37.7566 58.9738 38.2855 58.1473C39.2579 56.6275 40.5058 54.7601 41.9685 53.7785C42.835 53.1969 43.4187 52.0125 44.2738 51.4088C45.9706 50.211 47.7202 49.2492 49.4187 48.1438C49.8199 47.8827 50.2101 47.4891 50.6417 47.3102C51.1441 47.102 51.6485 46.6108 52.1669 46.4843C53.7554 46.0966 55.3854 46.0598 57.0307 46.0598C58.5184 46.0598 60.0061 46.0598 61.4938 46.0598C63.0064 46.0598 64.7949 45.8451 66.2733 46.2296C68.1159 46.7088 69.9484 47.3311 71.8399 47.5804C72.3861 47.6523 72.9316 47.8083 73.4776 47.8582C73.8121 47.8888 74.0363 48.1065 74.3421 48.1438C74.8741 48.2087 75.4822 48.2411 76.0078 48.3599C77.0164 48.588 78.0402 49.1016 78.9247 49.6413C79.698 50.1131 79.7125 51.2415 80.1336 52.0032C80.4977 52.6618 80.812 53.8118 80.9419 54.5967C81.0684 55.3606 80.9489 56.2616 80.9489 57.0358C80.9489 57.7143 80.6375 58.146 80.5624 58.7648C80.4182 59.9524 79.2917 61.3577 78.5733 62.2074C77.7762 63.15 77.219 64.5184 76.7177 65.6499C76.1124 67.0164 75.3014 68.3145 74.4897 69.5402C73.7008 70.7314 72.8992 72.0052 71.8469 72.9441C70.8847 73.8027 69.8643 74.7296 69.0847 75.7924C68.2891 76.877 66.6357 77.5551 65.5142 78.1543C64.2079 78.8522 62.7403 79.0915 61.3462 79.4742C60.1577 79.8005 58.9012 79.5107 57.6703 79.7521C55.7201 80.1345 53.7025 79.9605 51.7241 79.9605C50.2745 79.9605 48.6726 79.9672 47.268 79.6517C45.7614 79.3133 44.1395 79.6362 42.6151 79.397C42.0105 79.3022 41.3902 78.8755 40.7877 78.71C39.9899 78.491 39.1733 78.3409 38.3769 78.1466C37.5827 77.9528 36.9736 77.1728 36.2894 76.7649C35.2365 76.1372 34.1747 75.0034 33 74.6809" stroke="#020617" stroke-width="3" stroke-linecap="round"/>
<path d="M51.2221 62.532C50.2887 62.6297 46.8974 64.4416 48.362 65.9603C48.5363 66.1411 49.3324 65.6507 49.4906 65.5613C49.9357 65.3098 50.2137 65.0295 50.4846 64.5786C50.896 63.894 51.4077 63.3034 51.889 62.6871C52.2803 62.1862 51.5356 62.1032 51.2221 62" stroke="#020617" stroke-width="3" stroke-linecap="round"/>
<path d="M33.403 39.762C33.8912 39.6996 34.3488 39.1369 34.5678 38.6316C34.9021 37.8601 34.8086 37.0535 34.9461 36.2187C35.0999 35.2845 34.8816 34.2975 34.8236 33.3827C34.7996 33.0038 34.3111 32.8682 34.2331 32.5365C34.1918 32.3612 33.7373 32.2474 33.6234 32.1729C33.3413 31.9884 32.9486 31.9321 32.641 32.1002C32.3255 32.2727 32.1641 32.4535 31.9606 32.7712C31.4554 33.5602 31.2202 34.4495 31.0898 35.432C31.0413 35.7971 31.0027 36.123 31.0027 36.493C31.0027 36.6898 30.9967 36.8881 31.0027 37.0847C31.0106 37.3457 31.1651 37.5258 31.1959 37.7689C31.2545 38.2314 31.5965 38.6503 31.8844 38.9291C32.344 39.374 32.6532 39.817 33.256 40" stroke="#020617" stroke-width="3" stroke-linecap="round"/>
<path d="M18 26C18.4277 26.3208 19.0796 26.1968 19.4872 26.5648C19.6561 26.7173 19.8371 26.8236 20 27" stroke="#020617" stroke-width="3" stroke-linecap="round"/>
<path d="M71 10C70.3203 10.9663 69.6069 11.9647 69 13" stroke="#020617" stroke-width="3" stroke-linecap="round"/>
<path d="M84 18C84.0852 18.4976 84.3839 19.0067 84.4722 19.5225C84.7291 21.0221 85 22.485 85 24" stroke="#020617" stroke-width="3" stroke-linecap="round"/>
<path d="M48 65C48 64.8235 48 64.6469 48 64.4704C48 64.1058 48.2982 63.8 48.4508 63.5075C48.6966 63.0363 48.9614 62.8237 49.311 62.4669C49.7017 62.068 50.4753 62.0086 50.9713 62.0002C51.3385 61.994 51.5081 62.1076 51.803 62.3854C52.0146 62.5848 51.9998 62.6153 51.9998 62.9335" stroke="#020617" stroke-width="3" stroke-linecap="round"/>
<path d="M64.887 56.3744C64.8175 56.3358 64.4033 56.1418 64.3897 56.0903C64.3248 55.8435 66.0981 55.5407 66.2578 55.5149C66.6967 55.4442 68.6969 54.9519 68.648 55.8808C68.6228 56.3597 68.3051 56.6488 67.92 56.8823C67.6397 57.0521 67.246 57.3449 66.9042 57.3333C66.3233 57.3136 65.5988 57.037 65.061 56.8219C64.6874 56.6725 64.6952 56.5497 64.6952 56.1826" stroke="#020617" stroke-width="3" stroke-linecap="round"/>
</svg>
